<svg xmlns="http://www.w3.org/2000/svg" version="1.1" xmlns:xlink="http://www.w3.org/1999/xlink" xmlns:svgjs="http://svgjs.com/svgjs" width="512" height="512" x="0" y="0" viewBox="0 0 512 512" style="enable-background:new 0 0 512 512" xml:space="preserve"><g><linearGradient id="a" x1="31.125" x2="480.875" y1="256" y2="256" gradientUnits="userSpaceOnUse"><stop stop-opacity="1" stop-color="#fe0002" offset="0"></stop><stop stop-opacity="1" stop-color="#0383fe" offset="0"></stop><stop stop-opacity="1" stop-color="#0326fe" offset="0.005791505791505791"></stop><stop stop-opacity="1" stop-color="#030bfe" offset="0.08301158301158301"></stop><stop stop-opacity="1" stop-color="#6624fe" offset="0.2953667953667954"></stop><stop stop-opacity="1" stop-color="#8c3cfe" offset="0.5694980694980695"></stop><stop stop-opacity="1" stop-color="#944afe" offset="0.796"></stop><stop stop-opacity="1" stop-color="#de4ffe" offset="1"></stop></linearGradient><path d="M68.591 49.763s77.899-9.262 120.212 32.895 33.017 119.767 33.017 119.767-77.899 9.262-120.212-32.895S68.591 49.763 68.591 49.763zm305.717 316.489h0m-92.988-19.434c0-80.182-51.531-145.182-115.098-145.182s-115.098 65-115.098 145.182S102.656 492 166.223 492 281.32 427 281.32 346.818zm-115.097 59.273h0M416.852 21.087s-98.155-11.67-151.471 41.449-41.603 150.91-41.603 150.91 98.155 11.67 151.471-41.449 41.603-150.91 41.603-150.91zM267.179 419.886c55.471 43.553 127.292 47.77 168.101 7.113 13.147-13.098 21.612-29.406 25.595-47.34m-18.942-100.001c-7.528-12.815-16.979-25.117-28.307-36.403-22.828-22.743-49.785-37.917-76.786-45.045" style="fill:none;stroke:url(#a);stroke-width:40;stroke-linecap:round;stroke-linejoin:round;stroke-miterlimit:10;" fill="none" stroke-width="40" stroke-linecap="round" stroke-linejoin="round" stroke-miterlimit="10"></path></g></svg>